<?xml version="1.0" encoding="us-ascii" standalone="no"?><svg xmlns="http://www.w3.org/2000/svg" xmlns:xlink="http://www.w3.org/1999/xlink" contentStyleType="text/css" height="769px" preserveAspectRatio="none" style="width:1057px;height:769px;background:#FFFFFF;" version="1.1" viewBox="0 0 1057 769" width="1057px" zoomAndPan="magnify"><defs/><g><!--cluster Movement--><g id="cluster_Movement"><polygon fill="none" points="16,445.94,97,445.94,104,471.0079,351,471.0079,351,533.5,16,533.5,16,445.94" style="stroke:#000000;stroke-width:1.5;"/><line style="stroke:#000000;stroke-width:1.5;" x1="16" x2="104" y1="471.0079" y2="471.0079"/><text fill="#000000" font-family="sans-serif" font-size="14" font-weight="bold" lengthAdjust="spacing" textLength="75" x="20" y="462.9059">Movement</text></g><!--cluster mc--><g id="cluster_mc"><polygon fill="none" points="383,437.71,480,437.71,487,462.7779,999,462.7779,999,762.05,383,762.05,383,437.71" style="stroke:#000000;stroke-width:1.5;"/><line style="stroke:#000000;stroke-width:1.5;" x1="383" x2="487" y1="462.7779" y2="462.7779"/><text fill="#000000" font-family="sans-serif" font-size="14" font-weight="bold" lengthAdjust="spacing" textLength="91" x="387" y="454.6759">Map creation</text></g><g id="elem_move"><ellipse cx="191.0028" cy="500.7244" fill="#F1F1F1" rx="37.4228" ry="16.6744" style="stroke:#181818;stroke-width:0.5;"/><text fill="#000000" font-family="sans-serif" font-size="14" lengthAdjust="spacing" textLength="36" x="170.0028" y="505.4573">move</text></g><g id="elem_steer"><ellipse cx="299.0024" cy="500.7228" fill="#F1F1F1" rx="35.9124" ry="16.6428" style="stroke:#181818;stroke-width:0.5;"/><text fill="#000000" font-family="sans-serif" font-size="14" lengthAdjust="spacing" textLength="34" x="279.0024" y="505.4558">steer</text></g><g id="elem_collide"><ellipse cx="74.9969" cy="500.7189" fill="#F1F1F1" rx="43.4669" ry="16.7789" style="stroke:#181818;stroke-width:0.5;"/><text fill="#000000" font-family="sans-serif" font-size="14" lengthAdjust="spacing" textLength="44" x="49.9969" y="505.4519">collide</text></g><g id="elem_create map"><ellipse cx="504.0039" cy="500.7214" fill="#F1F1F1" rx="67.6639" ry="17.0114" style="stroke:#181818;stroke-width:0.5;"/><text fill="#000000" font-family="sans-serif" font-size="14" lengthAdjust="spacing" textLength="76" x="463.0039" y="505.4544">create map</text></g><g id="elem_save map"><ellipse cx="664.9976" cy="500.7166" fill="#F1F1F1" rx="58.5876" ry="16.9466" style="stroke:#181818;stroke-width:0.5;"/><text fill="#000000" font-family="sans-serif" font-size="14" lengthAdjust="spacing" textLength="64" x="629.9976" y="505.4495">save map</text></g><g id="elem_load map"><ellipse cx="816.0013" cy="500.7203" fill="#F1F1F1" rx="57.8313" ry="16.9403" style="stroke:#181818;stroke-width:0.5;"/><text fill="#000000" font-family="sans-serif" font-size="14" lengthAdjust="spacing" textLength="63" x="781.5013" y="505.4532">load map</text></g><g id="elem_add vehicle"><ellipse cx="504.0003" cy="618.9961" fill="#F1F1F1" rx="68.4203" ry="17.0161" style="stroke:#181818;stroke-width:0.5;"/><text fill="#000000" font-family="sans-serif" font-size="14" lengthAdjust="spacing" textLength="77" x="462.5003" y="623.729">add vehicle</text></g><g id="elem_add obstacle"><ellipse cx="680.9997" cy="619.0039" fill="#F1F1F1" rx="74.0697" ry="17.2139" style="stroke:#181818;stroke-width:0.5;"/><text fill="#000000" font-family="sans-serif" font-size="14" lengthAdjust="spacing" textLength="86" x="634.9997" y="623.7369">add obstacle</text></g><g id="elem_delete objects"><ellipse cx="867.0018" cy="619.0044" fill="#F1F1F1" rx="76.7218" ry="17.7444" style="stroke:#181818;stroke-width:0.5;"/><text fill="#000000" font-family="sans-serif" font-size="14" lengthAdjust="spacing" textLength="94" x="817.0018" y="623.7373">delete objects</text></g><g id="elem_assign coordinates"><ellipse cx="504.0038" cy="717.9048" fill="#F1F1F1" rx="88.7738" ry="20.1548" style="stroke:#181818;stroke-width:0.5;"/><text fill="#000000" font-family="sans-serif" font-size="14" lengthAdjust="spacing" textLength="127" x="437.5038" y="722.6377">assign coordinates</text></g><g id="elem_assign rotation"><ellipse cx="706.999" cy="717.8978" fill="#F1F1F1" rx="79.139" ry="18.2278" style="stroke:#181818;stroke-width:0.5;"/><text fill="#000000" font-family="sans-serif" font-size="14" lengthAdjust="spacing" textLength="101" x="653.499" y="722.6308">assign rotation</text></g><g id="elem_change driver"><ellipse cx="898.0018" cy="717.9044" fill="#F1F1F1" rx="76.7218" ry="17.7444" style="stroke:#181818;stroke-width:0.5;"/><text fill="#000000" font-family="sans-serif" font-size="14" lengthAdjust="spacing" textLength="94" x="848.0018" y="722.6373">change driver</text></g><!--entity Obstacle--><g id="elem_Obstacle"><ellipse cx="262" cy="14" fill="#F1F1F1" rx="8" ry="8" style="stroke:#181818;stroke-width:0.5;"/><path d="M262,22 L262,49 M249,30 L275,30 M262,49 L249,64 M262,49 L275,64 " fill="none" style="stroke:#181818;stroke-width:0.5;"/><text fill="#000000" font-family="sans-serif" font-size="14" lengthAdjust="spacing" textLength="59" x="232.5" y="80.4659">Obstacle</text></g><!--entity Bot--><g id="elem_Bot"><ellipse cx="1037" cy="469.68" fill="#F1F1F1" rx="8" ry="8" style="stroke:#181818;stroke-width:0.5;"/><path d="M1037,477.68 L1037,504.68 M1024,485.68 L1050,485.68 M1037,504.68 L1024,519.68 M1037,504.68 L1050,519.68 " fill="none" style="stroke:#181818;stroke-width:0.5;"/><text fill="#000000" font-family="sans-serif" font-size="14" lengthAdjust="spacing" textLength="22" x="1026" y="536.1459">Bot</text></g><!--entity User--><g id="elem_User"><ellipse cx="331" cy="294.14" fill="#F1F1F1" rx="8" ry="8" style="stroke:#181818;stroke-width:0.5;"/><path d="M331,302.14 L331,329.14 M318,310.14 L344,310.14 M331,329.14 L318,344.14 M331,329.14 L344,344.14 " fill="none" style="stroke:#181818;stroke-width:0.5;"/><text fill="#000000" font-family="sans-serif" font-size="14" lengthAdjust="spacing" textLength="31" x="315.5" y="360.6059">User</text></g><!--entity Vehicle--><g id="elem_Vehicle"><ellipse cx="262" cy="154.07" fill="#F1F1F1" rx="8" ry="8" style="stroke:#181818;stroke-width:0.5;"/><path d="M262,162.07 L262,189.07 M249,170.07 L275,170.07 M262,189.07 L249,204.07 M262,189.07 L275,204.07 " fill="none" style="stroke:#181818;stroke-width:0.5;"/><text fill="#000000" font-family="sans-serif" font-size="14" lengthAdjust="spacing" textLength="48" x="238" y="220.5359">Vehicle</text></g><g id="elem_start simulation"><ellipse cx="852.996" cy="325.1732" fill="#F1F1F1" rx="80.916" ry="18.5832" style="stroke:#181818;stroke-width:0.5;"/><text fill="#000000" font-family="sans-serif" font-size="14" lengthAdjust="spacing" textLength="106" x="796.996" y="329.9062">start simulation</text></g><g id="elem_control vehicle"><ellipse cx="460.0026" cy="325.1685" fill="#F1F1F1" rx="78.0926" ry="18.0185" style="stroke:#181818;stroke-width:0.5;"/><text fill="#000000" font-family="sans-serif" font-size="14" lengthAdjust="spacing" textLength="98" x="408.0026" y="329.9015">control vehicle</text></g><g id="elem_reset simulation"><ellipse cx="655.001" cy="325.1702" fill="#F1F1F1" rx="82.001" ry="18.8002" style="stroke:#181818;stroke-width:0.5;"/><text fill="#000000" font-family="sans-serif" font-size="14" lengthAdjust="spacing" textLength="109" x="597.501" y="329.9032">reset simulation</text></g><!--link Vehicle to collide--><g id="link_Vehicle_collide"><path d="M238.88,224.87 C197.55,294.2 115.7226,431.4164 87.4626,478.8164 " fill="none" id="Vehicle-to-collide" style="stroke:#181818;stroke-width:1.0;"/><polygon fill="#181818" points="84.39,483.97,92.4346,478.288,86.9505,479.6754,85.5631,474.1913,84.39,483.97" style="stroke:#181818;stroke-width:1.0;"/></g><!--link Vehicle to move--><g id="link_Vehicle_move"><path d="M253.22,224.87 C237.57,294.03 206.7751,430.0481 195.9651,477.7881 " fill="none" id="Vehicle-to-move" style="stroke:#181818;stroke-width:1.0;"/><polygon fill="#181818" points="194.64,483.64,200.5288,475.7456,195.7442,478.7635,192.7264,473.9788,194.64,483.64" style="stroke:#181818;stroke-width:1.0;"/></g><!--link Vehicle to steer--><g id="link_Vehicle_steer"><path d="M266.57,224.87 C274.73,294.03 290.7673,429.9413 296.3973,477.6813 " fill="none" id="Vehicle-to-steer" style="stroke:#181818;stroke-width:1.0;"/><polygon fill="#181818" points="297.1,483.64,300.0184,474.2335,296.5144,478.6744,292.0735,475.1704,297.1,483.64" style="stroke:#181818;stroke-width:1.0;"/></g><!--link Bot to steer--><g id="link_Bot_steer"><path d="M1024.97,460.94 C1015.3,436.61 999.04,407.49 973.5,393.21 C917.16,361.69 451.25,366.44 392.5,393.21 C351.31,411.97 324.1126,453.5878 310.3026,478.7978 " fill="none" id="Bot-to-steer" style="stroke:#181818;stroke-width:1.0;"/><polygon fill="#181818" points="307.42,484.06,315.252,478.0885,309.8222,479.6749,308.2358,474.245,307.42,484.06" style="stroke:#181818;stroke-width:1.0;"/></g><!--link Bot to collide--><g id="link_Bot_collide"><path d="M1024.97,460.94 C1015.3,436.61 999.04,407.49 973.5,393.21 C933.74,370.96 194.11,372.57 153.5,393.21 C116,412.26 94.4773,453.034 83.8273,478.214 " fill="none" id="Bot-to-collide" style="stroke:#181818;stroke-width:1.0;"/><polygon fill="#181818" points="81.49,483.74,88.6799,477.0091,83.4377,479.135,81.3119,473.8928,81.49,483.74" style="stroke:#181818;stroke-width:1.0;"/></g><!--link Bot to move--><g id="link_Bot_move"><path d="M1024.97,460.94 C1015.3,436.61 999.04,407.49 973.5,393.21 C904.65,354.69 333.15,356.17 263.5,393.21 C227.32,412.44 208.0318,453.0464 198.6918,478.1564 " fill="none" id="Bot-to-move" style="stroke:#181818;stroke-width:1.0;"/><polygon fill="#181818" points="196.6,483.78,203.4867,476.7392,198.3431,479.0937,195.9886,473.9501,196.6,483.78" style="stroke:#181818;stroke-width:1.0;"/></g><!--reverse link Obstacle to Vehicle--><g id="link_Obstacle_Vehicle"><path d="M262,102.86 C262,121.69 262,126.24 262,145.09 " fill="none" id="Obstacle-backto-Vehicle" style="stroke:#181818;stroke-width:1.0;"/><polygon fill="none" points="262,84.86,256,102.86,268,102.86,262,84.86" style="stroke:#181818;stroke-width:1.0;"/></g><!--reverse link Vehicle to Bot--><g id="link_Vehicle_Bot"><path d="M304.2469,186.7849 C413.8769,188.8249 844.46,201.9 951,285.64 C1005.64,328.58 1025.72,411.65 1032.98,460.73 " fill="none" id="Vehicle-backto-Bot" style="stroke:#181818;stroke-width:1.0;"/><polygon fill="none" points="286.25,186.45,304.1353,192.7838,304.3585,180.7859,286.25,186.45" style="stroke:#181818;stroke-width:1.0;"/></g><!--reverse link Vehicle to User--><g id="link_Vehicle_User"><path d="M289.4498,241.0297 C300.1398,262.4097 305.17,272.5 315.22,292.6 " fill="none" id="Vehicle-backto-User" style="stroke:#181818;stroke-width:1.0;"/><polygon fill="none" points="281.4,224.93,284.0833,243.713,294.8164,238.3464,281.4,224.93" style="stroke:#181818;stroke-width:1.0;"/></g><!--link User to control vehicle--><g id="link_User_control vehicle"><path d="M346.87,325.17 C358.51,325.17 364.15,325.17 375.78,325.17 " fill="none" id="User-to-control vehicle" style="stroke:#181818;stroke-width:1.0;"/><polygon fill="#181818" points="381.78,325.17,372.78,321.17,376.78,325.17,372.78,329.17,381.78,325.17" style="stroke:#181818;stroke-width:1.0;"/></g><!--link User to start simulation--><g id="link_User_start simulation"><path d="M347,290.52 C355.23,276.89 366.69,262.72 381.5,255.14 C451.92,219.1 661.31,233.84 737.5,255.14 C773.41,265.17 804.5405,286.0679 826.5605,303.2579 " fill="none" id="User-to-start simulation" style="stroke:#181818;stroke-width:1.0;"/><polygon fill="#181818" points="831.29,306.95,826.6571,298.2588,827.3487,303.8732,821.7343,304.5648,831.29,306.95" style="stroke:#181818;stroke-width:1.0;"/></g><!--link User to reset simulation--><g id="link_User_reset simulation"><path d="M347,290.52 C355.23,276.89 366.69,262.72 381.5,255.14 C443.62,223.35 471.26,236.48 538.5,255.14 C574.43,265.11 605.6391,285.7854 627.8991,302.9554 " fill="none" id="User-to-reset simulation" style="stroke:#181818;stroke-width:1.0;"/><polygon fill="#181818" points="632.65,306.62,627.9667,297.9559,628.6909,303.5662,623.0806,304.2904,632.65,306.62" style="stroke:#181818;stroke-width:1.0;"/></g><!--link control vehicle to move--><g id="link_control vehicle_move"><path d="M423.1,341.38 C365.82,365.19 260.53,409.75 246,421.71 C224.75,439.18 210.7623,461.4952 201.5623,478.7552 " fill="none" id="control vehicle-to-move" style="stroke:#181818;stroke-width:1.0;stroke-dasharray:7.0,7.0;"/><polygon fill="#181818" points="198.74,484.05,206.5032,477.9893,201.0919,479.6377,199.4435,474.2263,198.74,484.05" style="stroke:#181818;stroke-width:1.0;"/><text fill="#000000" font-family="sans-serif" font-size="13" lengthAdjust="spacing" textLength="62" x="296" y="409.607">&#171;extends&#187;</text></g><!--link control vehicle to steer--><g id="link_control vehicle_steer"><path d="M461.42,343.51 C462.01,363.56 459.56,396.05 440,413.71 C418.39,433.21 401.08,408.77 375,421.71 C346.03,436.07 325.3078,461.1395 312.4378,479.4695 " fill="none" id="control vehicle-to-steer" style="stroke:#181818;stroke-width:1.0;stroke-dasharray:7.0,7.0;"/><polygon fill="#181818" points="308.99,484.38,317.4353,479.3128,311.8632,480.2879,310.888,474.7158,308.99,484.38" style="stroke:#181818;stroke-width:1.0;"/><text fill="#000000" font-family="sans-serif" font-size="13" lengthAdjust="spacing" textLength="62" x="453" y="409.607">&#171;extends&#187;</text></g><!--link User to mc--><g id="link_User_mc"><path d="M327.46,365.04 C327.73,381.09 330.41,399.28 339,413.71 C342.28,419.21 346.73,416.92 351,421.71 C363.56,435.795 373.3375,454.5375 380.0812,470.1212 C380.9242,472.0692 381.7198,473.9678 382.4675,475.8018 C382.5609,476.0311 382.6536,476.2593 382.7456,476.4865 C382.7916,476.6001 380.5931,471.149 380.6387,471.2621 " fill="none" id="User-to-mc" style="stroke:#181818;stroke-width:1.0;"/><polygon fill="#181818" points="382.883,476.8265,383.2262,466.9837,381.0128,472.1895,375.8069,469.976,382.883,476.8265" style="stroke:#181818;stroke-width:1.0;"/></g><!--SRC=[VLAxRiCm3Dpr5OIdPaW_m0WyT0yw5EtEI4IYHfOCaJPQjFttogyuSfDwak-EHnqfFblVOCGQNkJJ4R14gwMjdLAe9KHuFh2WTZJzFWMPJgzCSJg-qSds4jMWFkEHO1ywgiaBV2b8NykaaGdg16S02oMJQqG7vwmXzREO5NjiG4T2iS4NW0orJiPPMJ7mgGCsHKumThTW5z3SWD4OwCOqDvWmpM956NAKUeV3EsdXTHspFVgKAqHZVRhZ7K4CCWPSvJgXJpCmqNOK2zNFPOac60NOrgsRIfUou2K6jsHHvRIa4hRLPSePE6mdGyRrg38jVVX_683D0bnyPc3mk3Pfc-rt1UNyYifPEk6pK9NzS_e7JyrNcJRNt7eK6Hc9AIV_UC7sCGdxsszAsEteGyWRhgfxod4GkNJks8z1_m80]--></g></svg>