<?xml version="1.0" encoding="us-ascii" standalone="no"?><svg xmlns="http://www.w3.org/2000/svg" xmlns:xlink="http://www.w3.org/1999/xlink" contentStyleType="text/css" height="1570px" preserveAspectRatio="none" style="width:1391px;height:1570px;background:#FFFFFF;" version="1.1" viewBox="0 0 1391 1570" width="1391px" zoomAndPan="magnify"><defs/><g><!--cluster shapes--><g id="cluster_shapes"><polygon fill="none" points="16,1174.602,70,1174.602,77,1199.6699,1374,1199.6699,1374,1563.602,16,1563.602,16,1174.602" style="stroke:#000000;stroke-width:1.5;"/><line style="stroke:#000000;stroke-width:1.5;" x1="16" x2="77" y1="1199.6699" y2="1199.6699"/><text fill="#000000" font-family="sans-serif" font-size="14" font-weight="bold" lengthAdjust="spacing" textLength="48" x="20" y="1191.5679">shapes</text></g><!--cluster renderable--><g id="cluster_renderable"><polygon fill="none" points="287,592.602,368,592.602,375,617.6699,608,617.6699,608,1134.602,287,1134.602,287,592.602" style="stroke:#000000;stroke-width:1.5;"/><line style="stroke:#000000;stroke-width:1.5;" x1="287" x2="375" y1="617.6699" y2="617.6699"/><text fill="#000000" font-family="sans-serif" font-size="14" font-weight="bold" lengthAdjust="spacing" textLength="75" x="291" y="609.5679">renderable</text></g><!--cluster actors--><g id="cluster_actors"><polygon fill="none" points="809,483.602,858,483.602,865,508.6699,1327,508.6699,1327,1150.602,809,1150.602,809,483.602" style="stroke:#000000;stroke-width:1.5;"/><line style="stroke:#000000;stroke-width:1.5;" x1="809" x2="865" y1="508.6699" y2="508.6699"/><text fill="#000000" font-family="sans-serif" font-size="14" font-weight="bold" lengthAdjust="spacing" textLength="43" x="813" y="500.5679">actors</text></g><!--cluster user_interface--><g id="cluster_user_interface"><polygon fill="none" points="300,6.602,403,6.602,410,31.6699,595,31.6699,595,568.602,300,568.602,300,6.602" style="stroke:#000000;stroke-width:1.5;"/><line style="stroke:#000000;stroke-width:1.5;" x1="300" x2="410" y1="31.6699" y2="31.6699"/><text fill="#000000" font-family="sans-serif" font-size="14" font-weight="bold" lengthAdjust="spacing" textLength="97" x="304" y="23.5679">user_interface</text></g><!--class TPoint--><g id="elem_TPoint"><rect codeLine="9" fill="#F1F1F1" height="90.8241" id="TPoint" rx="2.5" ry="2.5" style="stroke:#181818;stroke-width:0.5;" width="204" x="34" y="1338.192"/><text fill="#000000" font-family="sans-serif" font-size="14" lengthAdjust="spacing" textLength="42" x="37" y="1361.9681">TPoint</text><rect fill="#FFFFFF" height="34.6882" style="stroke:#181818;stroke-width:1.0;stroke-dasharray:2.0,2.0;" width="154" x="87" y="1335.192"/><text fill="#000000" font-family="sans-serif" font-size="12" font-style="italic" font-weight="bold" lengthAdjust="spacing" textLength="6" x="130.5" y="1349.0201">T</text><text fill="#000000" font-family="sans-serif" font-size="12" font-style="italic" lengthAdjust="spacing" textLength="58" x="139.5" y="1349.0201">value type,</text><text fill="#000000" font-family="sans-serif" font-size="12" font-style="italic" font-weight="bold" lengthAdjust="spacing" textLength="28" x="88" y="1365.3642">dims</text><text fill="#000000" font-family="sans-serif" font-size="12" font-style="italic" lengthAdjust="spacing" textLength="121" x="119" y="1365.3642">number of dimensions</text><line style="stroke:#181818;stroke-width:0.5;" x1="35" x2="237" y1="1374.8802" y2="1374.8802"/><text fill="#000000" font-family="sans-serif" font-size="14" lengthAdjust="spacing" textLength="153" x="40" y="1393.8461">coords: array&lt;T, dims&gt;</text><line style="stroke:#181818;stroke-width:0.5;" x1="35" x2="237" y1="1401.9481" y2="1401.9481"/><text fill="#000000" font-family="sans-serif" font-size="14" lengthAdjust="spacing" textLength="136" x="40" y="1420.9141">TPoint(T arg, Args...)</text></g><!--class Point2D--><g id="elem_Point2D"><rect codeLine="14" fill="#F1F1F1" height="61.412" id="Point2D" rx="2.5" ry="2.5" style="stroke:#181818;stroke-width:0.5;" width="146" x="374.5" y="1396.892"/><text fill="#000000" font-family="sans-serif" font-size="12" font-style="italic" lengthAdjust="spacing" textLength="52" x="377.5" y="1414.7201">&#171;typedef&#187;</text><text fill="#000000" font-family="sans-serif" font-size="14" lengthAdjust="spacing" textLength="52" x="377.5" y="1433.202">Point2D</text><rect fill="#FFFFFF" height="18.3441" style="stroke:#181818;stroke-width:1.0;stroke-dasharray:2.0,2.0;" width="86" x="437.5" y="1393.892"/><text fill="#000000" font-family="sans-serif" font-size="12" font-style="italic" lengthAdjust="spacing" textLength="84" x="438.5" y="1407.7201">T=float, dims=2</text><line style="stroke:#181818;stroke-width:0.5;" x1="375.5" x2="519.5" y1="1442.304" y2="1442.304"/><line style="stroke:#181818;stroke-width:0.5;" x1="375.5" x2="519.5" y1="1450.304" y2="1450.304"/></g><!--class TVector--><g id="elem_TVector"><rect codeLine="16" fill="#F1F1F1" height="52.6882" id="TVector" rx="2.5" ry="2.5" style="stroke:#181818;stroke-width:0.5;" width="212" x="341.5" y="1309.262"/><text fill="#000000" font-family="sans-serif" font-size="14" lengthAdjust="spacing" textLength="50" x="344.5" y="1333.0381">TVector</text><rect fill="#FFFFFF" height="34.6882" style="stroke:#181818;stroke-width:1.0;stroke-dasharray:2.0,2.0;" width="154" x="402.5" y="1306.262"/><text fill="#000000" font-family="sans-serif" font-size="12" font-style="italic" font-weight="bold" lengthAdjust="spacing" textLength="6" x="446" y="1320.0901">T</text><text fill="#000000" font-family="sans-serif" font-size="12" font-style="italic" lengthAdjust="spacing" textLength="58" x="455" y="1320.0901">value type,</text><text fill="#000000" font-family="sans-serif" font-size="12" font-style="italic" font-weight="bold" lengthAdjust="spacing" textLength="28" x="403.5" y="1336.4342">dims</text><text fill="#000000" font-family="sans-serif" font-size="12" font-style="italic" lengthAdjust="spacing" textLength="121" x="434.5" y="1336.4342">number of dimensions</text><line style="stroke:#181818;stroke-width:0.5;" x1="342.5" x2="552.5" y1="1345.9502" y2="1345.9502"/><line style="stroke:#181818;stroke-width:0.5;" x1="342.5" x2="552.5" y1="1353.9502" y2="1353.9502"/></g><!--class Vect2D--><g id="elem_Vect2D"><rect codeLine="20" fill="#F1F1F1" height="61.412" id="Vect2D" rx="2.5" ry="2.5" style="stroke:#181818;stroke-width:0.5;" width="142" x="919" y="1347.892"/><text fill="#000000" font-family="sans-serif" font-size="12" font-style="italic" lengthAdjust="spacing" textLength="52" x="920" y="1365.7201">&#171;typedef&#187;</text><text fill="#000000" font-family="sans-serif" font-size="14" lengthAdjust="spacing" textLength="46" x="923" y="1384.202">Vect2D</text><rect fill="#FFFFFF" height="18.3441" style="stroke:#181818;stroke-width:1.0;stroke-dasharray:2.0,2.0;" width="86" x="978" y="1344.892"/><text fill="#000000" font-family="sans-serif" font-size="12" font-style="italic" lengthAdjust="spacing" textLength="84" x="979" y="1358.7201">T=float, dims=2</text><line style="stroke:#181818;stroke-width:0.5;" x1="920" x2="1060" y1="1393.304" y2="1393.304"/><line style="stroke:#181818;stroke-width:0.5;" x1="920" x2="1060" y1="1401.304" y2="1401.304"/></g><!--class TCircle--><g id="elem_TCircle"><rect codeLine="22" fill="#F1F1F1" height="90.8241" id="TCircle" rx="2.5" ry="2.5" style="stroke:#181818;stroke-width:0.5;" width="208" x="32" y="1212.192"/><text fill="#000000" font-family="sans-serif" font-size="14" lengthAdjust="spacing" textLength="46" x="35" y="1235.9681">TCircle</text><rect fill="#FFFFFF" height="34.6882" style="stroke:#181818;stroke-width:1.0;stroke-dasharray:2.0,2.0;" width="154" x="89" y="1209.192"/><text fill="#000000" font-family="sans-serif" font-size="12" font-style="italic" font-weight="bold" lengthAdjust="spacing" textLength="6" x="132.5" y="1223.0201">T</text><text fill="#000000" font-family="sans-serif" font-size="12" font-style="italic" lengthAdjust="spacing" textLength="58" x="141.5" y="1223.0201">value type,</text><text fill="#000000" font-family="sans-serif" font-size="12" font-style="italic" font-weight="bold" lengthAdjust="spacing" textLength="28" x="90" y="1239.3642">dims</text><text fill="#000000" font-family="sans-serif" font-size="12" font-style="italic" lengthAdjust="spacing" textLength="121" x="121" y="1239.3642">number of dimensions</text><line style="stroke:#181818;stroke-width:0.5;" x1="33" x2="239" y1="1248.8802" y2="1248.8802"/><text fill="#000000" font-family="sans-serif" font-size="14" lengthAdjust="spacing" textLength="59" x="38" y="1267.8461">radius: T</text><text fill="#000000" font-family="sans-serif" font-size="14" lengthAdjust="spacing" textLength="135" x="38" y="1286.9141">circle_center: TPoint</text><line style="stroke:#181818;stroke-width:0.5;" x1="33" x2="239" y1="1295.016" y2="1295.016"/></g><!--class Circle2D--><g id="elem_Circle2D"><rect codeLine="27" fill="#F1F1F1" height="61.412" id="Circle2D" rx="2.5" ry="2.5" style="stroke:#181818;stroke-width:0.5;" width="150" x="372.5" y="1212.892"/><text fill="#000000" font-family="sans-serif" font-size="12" font-style="italic" lengthAdjust="spacing" textLength="52" x="377.5" y="1230.7201">&#171;typedef&#187;</text><text fill="#000000" font-family="sans-serif" font-size="14" lengthAdjust="spacing" textLength="56" x="375.5" y="1249.202">Circle2D</text><rect fill="#FFFFFF" height="18.3441" style="stroke:#181818;stroke-width:1.0;stroke-dasharray:2.0,2.0;" width="86" x="439.5" y="1209.892"/><text fill="#000000" font-family="sans-serif" font-size="12" font-style="italic" lengthAdjust="spacing" textLength="84" x="440.5" y="1223.7201">T=float, dims=2</text><line style="stroke:#181818;stroke-width:0.5;" x1="373.5" x2="521.5" y1="1258.304" y2="1258.304"/><line style="stroke:#181818;stroke-width:0.5;" x1="373.5" x2="521.5" y1="1266.304" y2="1266.304"/></g><!--class TLine--><g id="elem_TLine"><rect codeLine="29" fill="#F1F1F1" height="71.7561" id="TLine" rx="2.5" ry="2.5" style="stroke:#181818;stroke-width:0.5;" width="198" x="891" y="1240.722"/><text fill="#000000" font-family="sans-serif" font-size="14" lengthAdjust="spacing" textLength="36" x="894" y="1264.4981">TLine</text><rect fill="#FFFFFF" height="34.6882" style="stroke:#181818;stroke-width:1.0;stroke-dasharray:2.0,2.0;" width="154" x="938" y="1237.722"/><text fill="#000000" font-family="sans-serif" font-size="12" font-style="italic" font-weight="bold" lengthAdjust="spacing" textLength="6" x="981.5" y="1251.5501">T</text><text fill="#000000" font-family="sans-serif" font-size="12" font-style="italic" lengthAdjust="spacing" textLength="58" x="990.5" y="1251.5501">value type,</text><text fill="#000000" font-family="sans-serif" font-size="12" font-style="italic" font-weight="bold" lengthAdjust="spacing" textLength="28" x="939" y="1267.8942">dims</text><text fill="#000000" font-family="sans-serif" font-size="12" font-style="italic" lengthAdjust="spacing" textLength="121" x="970" y="1267.8942">number of dimensions</text><line style="stroke:#181818;stroke-width:0.5;" x1="892" x2="1088" y1="1277.4102" y2="1277.4102"/><text fill="#000000" font-family="sans-serif" font-size="14" lengthAdjust="spacing" textLength="90" x="897" y="1296.3761">origin: TPoint</text><line style="stroke:#181818;stroke-width:0.5;" x1="892" x2="1088" y1="1304.4781" y2="1304.4781"/></g><!--class Line2D--><g id="elem_Line2D"><rect codeLine="33" fill="#F1F1F1" height="61.412" id="Line2D" rx="2.5" ry="2.5" style="stroke:#181818;stroke-width:0.5;" width="142" x="1216" y="1245.892"/><text fill="#000000" font-family="sans-serif" font-size="12" font-style="italic" lengthAdjust="spacing" textLength="52" x="1217" y="1263.7201">&#171;typedef&#187;</text><text fill="#000000" font-family="sans-serif" font-size="14" lengthAdjust="spacing" textLength="46" x="1220" y="1282.202">Line2D</text><rect fill="#FFFFFF" height="18.3441" style="stroke:#181818;stroke-width:1.0;stroke-dasharray:2.0,2.0;" width="86" x="1275" y="1242.892"/><text fill="#000000" font-family="sans-serif" font-size="12" font-style="italic" lengthAdjust="spacing" textLength="84" x="1276" y="1256.7201">T=float, dims=2</text><line style="stroke:#181818;stroke-width:0.5;" x1="1217" x2="1357" y1="1291.304" y2="1291.304"/><line style="stroke:#181818;stroke-width:0.5;" x1="1217" x2="1357" y1="1299.304" y2="1299.304"/></g><!--class Segment--><g id="elem_Segment"><rect codeLine="35" fill="#F1F1F1" height="83.2038" id="Segment" rx="2.5" ry="2.5" style="stroke:#181818;stroke-width:0.5;" width="191" x="40.5" y="1464.002"/><text fill="#000000" font-family="sans-serif" font-size="14" lengthAdjust="spacing" textLength="60" x="106" y="1483.9679">Segment</text><line style="stroke:#181818;stroke-width:0.5;" x1="41.5" x2="230.5" y1="1493.0699" y2="1493.0699"/><text fill="#000000" font-family="sans-serif" font-size="14" lengthAdjust="spacing" textLength="179" x="46.5" y="1512.0358">formula: Circle2D | Line2D</text><text fill="#000000" font-family="sans-serif" font-size="14" lengthAdjust="spacing" textLength="145" x="46.5" y="1531.1038">range: array&lt;float, 2&gt;</text><line style="stroke:#181818;stroke-width:0.5;" x1="41.5" x2="230.5" y1="1539.2057" y2="1539.2057"/></g><!--class renderer--><g id="elem_renderer"><rect codeLine="42" fill="#F1F1F1" height="83.2038" id="renderer" rx="2.5" ry="2.5" style="stroke:#181818;stroke-width:0.5;" width="289" x="303" y="631.002"/><text fill="#000000" font-family="sans-serif" font-size="14" lengthAdjust="spacing" textLength="60" x="417.5" y="650.9679">renderer</text><line style="stroke:#181818;stroke-width:0.5;" x1="304" x2="591" y1="660.0699" y2="660.0699"/><text fill="#000000" font-family="sans-serif" font-size="14" lengthAdjust="spacing" textLength="277" x="309" y="679.0358">objects: vector&lt;shared_ptr&lt;renderable&gt;&gt;</text><text fill="#000000" font-family="sans-serif" font-size="14" lengthAdjust="spacing" textLength="208" x="309" y="698.1038">minds: vector&lt;shared_ptr&lt;ai&gt;&gt;</text><line style="stroke:#181818;stroke-width:0.5;" x1="304" x2="591" y1="706.2057" y2="706.2057"/></g><!--class renderable--><g id="elem_renderable"><rect codeLine="46" fill="#F1F1F1" height="369.2225" id="renderable" rx="2.5" ry="2.5" style="stroke:#181818;stroke-width:0.5;" width="252" x="321.5" y="748.992"/><text fill="#000000" font-family="sans-serif" font-size="14" font-style="italic" lengthAdjust="spacing" textLength="69" x="413" y="768.9579">renderable</text><line style="stroke:#181818;stroke-width:0.5;" x1="322.5" x2="572.5" y1="778.0599" y2="778.0599"/><text fill="#000000" font-family="sans-serif" font-size="14" lengthAdjust="spacing" textLength="179" x="327.5" y="797.0258">formula: Circle2D | Line2D</text><text fill="#000000" font-family="sans-serif" font-size="14" lengthAdjust="spacing" textLength="145" x="327.5" y="816.0938">range: array&lt;float, 2&gt;</text><line style="stroke:#181818;stroke-width:0.5;" x1="322.5" x2="572.5" y1="824.1957" y2="824.1957"/><text fill="#000000" font-family="sans-serif" font-size="14" font-style="italic" lengthAdjust="spacing" textLength="139" x="327.5" y="843.1617">void move(float, float)</text><text fill="#000000" font-family="sans-serif" font-size="14" font-style="italic" lengthAdjust="spacing" textLength="138" x="327.5" y="862.2296">void place(float, float)</text><text fill="#000000" font-family="sans-serif" font-size="14" font-style="italic" lengthAdjust="spacing" textLength="107" x="327.5" y="881.2975">void rotate(float)</text><text fill="#000000" font-family="sans-serif" font-size="14" font-style="italic" lengthAdjust="spacing" textLength="101" x="327.5" y="900.3654">Point2D center()</text><text fill="#000000" font-family="sans-serif" font-size="14" lengthAdjust="spacing" textLength="4" x="327.5" y="919.4333">&#160;</text><text fill="#000000" font-family="sans-serif" font-size="14" font-style="italic" lengthAdjust="spacing" textLength="149" x="327.5" y="938.5013">void set_texture(GLuint)</text><text fill="#000000" font-family="sans-serif" font-size="14" font-style="italic" lengthAdjust="spacing" textLength="124" x="327.5" y="957.5692">GLuint get_texture()</text><text fill="#000000" font-family="sans-serif" font-size="14" font-style="italic" lengthAdjust="spacing" textLength="81" x="327.5" y="976.6371">void render()</text><text fill="#000000" font-family="sans-serif" font-size="14" lengthAdjust="spacing" textLength="4" x="327.5" y="995.705">&#160;</text><text fill="#000000" font-family="sans-serif" font-size="14" lengthAdjust="spacing" textLength="204" x="327.5" y="1014.7729">Vect2D distance(renderable &amp;)</text><text fill="#000000" font-family="sans-serif" font-size="14" lengthAdjust="spacing" textLength="167" x="327.5" y="1033.8408">Vect2D distance(Point2D)</text><text fill="#000000" font-family="sans-serif" font-size="14" lengthAdjust="spacing" textLength="240" x="327.5" y="1052.9088">Points2D intersection(renderable &amp;)</text><text fill="#000000" font-family="sans-serif" font-size="14" font-style="italic" lengthAdjust="spacing" textLength="172" x="327.5" y="1071.9767">Point2D predict(float, float)</text><text fill="#000000" font-family="sans-serif" font-size="14" font-style="italic" lengthAdjust="spacing" textLength="239" x="327.5" y="1091.0446">Circle2D | vector&lt;Segment&gt; formula()</text><text fill="#000000" font-family="sans-serif" font-size="14" font-style="italic" lengthAdjust="spacing" textLength="73" x="327.5" y="1110.1125">string info()</text></g><!--class ai--><g id="elem_ai"><rect codeLine="69" fill="#F1F1F1" height="121.3396" id="ai" rx="2.5" ry="2.5" style="stroke:#181818;stroke-width:0.5;" width="243" x="868.5" y="834.102"/><text fill="#000000" font-family="sans-serif" font-size="14" lengthAdjust="spacing" textLength="12" x="984" y="854.0679">ai</text><line style="stroke:#181818;stroke-width:0.5;" x1="869.5" x2="1110.5" y1="863.1699" y2="863.1699"/><text fill="#000000" font-family="sans-serif" font-size="14" lengthAdjust="spacing" textLength="54" x="874.5" y="882.1358">dx: float</text><text fill="#000000" font-family="sans-serif" font-size="14" lengthAdjust="spacing" textLength="54" x="874.5" y="901.2038">dy: float</text><text fill="#000000" font-family="sans-serif" font-size="14" lengthAdjust="spacing" textLength="219" x="874.5" y="920.2717">next_change: chrono::time_point</text><text fill="#000000" font-family="sans-serif" font-size="14" lengthAdjust="spacing" textLength="231" x="874.5" y="939.3396">attached: shared_ptr&lt;renderable&gt;</text><line style="stroke:#181818;stroke-width:0.5;" x1="869.5" x2="1110.5" y1="947.4416" y2="947.4416"/></g><!--class vehicle--><g id="elem_vehicle"><rect codeLine="76" fill="#F1F1F1" height="140.4075" id="vehicle" rx="2.5" ry="2.5" style="stroke:#181818;stroke-width:0.5;" width="243" x="868.5" y="994.402"/><text fill="#000000" font-family="sans-serif" font-size="14" lengthAdjust="spacing" textLength="47" x="966.5" y="1014.3679">vehicle</text><line style="stroke:#181818;stroke-width:0.5;" x1="869.5" x2="1110.5" y1="1023.4699" y2="1023.4699"/><text fill="#000000" font-family="sans-serif" font-size="14" lengthAdjust="spacing" textLength="123" x="874.5" y="1042.4358">poly_count: uint16</text><text fill="#000000" font-family="sans-serif" font-size="14" lengthAdjust="spacing" textLength="81" x="874.5" y="1061.5038">radius: float</text><text fill="#000000" font-family="sans-serif" font-size="14" lengthAdjust="spacing" textLength="100" x="874.5" y="1080.5717">texture: GLuint</text><text fill="#000000" font-family="sans-serif" font-size="14" lengthAdjust="spacing" textLength="219" x="874.5" y="1099.6396">next_change: chrono::time_point</text><text fill="#000000" font-family="sans-serif" font-size="14" lengthAdjust="spacing" textLength="231" x="874.5" y="1118.7075">attached: shared_ptr&lt;renderable&gt;</text><line style="stroke:#181818;stroke-width:0.5;" x1="869.5" x2="1110.5" y1="1126.8095" y2="1126.8095"/></g><!--class obstacle--><g id="elem_obstacle"><rect codeLine="84" fill="#F1F1F1" height="273.8829" id="obstacle" rx="2.5" ry="2.5" style="stroke:#181818;stroke-width:0.5;" width="330" x="825" y="521.662"/><text fill="#000000" font-family="sans-serif" font-size="14" lengthAdjust="spacing" textLength="56" x="962" y="541.6279">obstacle</text><line style="stroke:#181818;stroke-width:0.5;" x1="826" x2="1154" y1="550.7299" y2="550.7299"/><text fill="#000000" font-family="sans-serif" font-size="14" lengthAdjust="spacing" textLength="178" x="831" y="569.6958">bounds: array&lt;Point2D, 4&gt;</text><text fill="#000000" font-family="sans-serif" font-size="14" lengthAdjust="spacing" textLength="165" x="831" y="588.7638">obstacle_center: Point2D</text><line style="stroke:#181818;stroke-width:0.5;" x1="826" x2="1154" y1="596.8657" y2="596.8657"/><text fill="#000000" font-family="sans-serif" font-size="14" lengthAdjust="spacing" textLength="142" x="831" y="615.8317">string info() override;</text><text fill="#000000" font-family="sans-serif" font-size="14" lengthAdjust="spacing" textLength="150" x="831" y="634.8996">void render() override;</text><text fill="#000000" font-family="sans-serif" font-size="14" lengthAdjust="spacing" textLength="278" x="831" y="653.9675">void place(float x = 0, float y = 0) override;</text><text fill="#000000" font-family="sans-serif" font-size="14" lengthAdjust="spacing" textLength="210" x="831" y="673.0354">void rotate(float a = 0) override;</text><text fill="#000000" font-family="sans-serif" font-size="14" lengthAdjust="spacing" textLength="296" x="831" y="692.1033">void move(float dx = 0, float dy = 0) override;</text><text fill="#000000" font-family="sans-serif" font-size="14" lengthAdjust="spacing" textLength="284" x="831" y="711.1713">Point2D predict(float dx, float dy) override;</text><text fill="#000000" font-family="sans-serif" font-size="14" lengthAdjust="spacing" textLength="318" x="831" y="730.2392">Circle2D | vector&lt;Segment&gt; formula() override;</text><text fill="#000000" font-family="sans-serif" font-size="14" lengthAdjust="spacing" textLength="171" x="831" y="749.3071">Point2D center() override;</text><text fill="#000000" font-family="sans-serif" font-size="14" lengthAdjust="spacing" textLength="239" x="831" y="768.375">void set_texture(GLuint id) override;</text><text fill="#000000" font-family="sans-serif" font-size="14" lengthAdjust="spacing" textLength="196" x="831" y="787.4429">GLuint get_texture() override;</text></g><!--class player--><g id="elem_player"><rect codeLine="100" fill="#F1F1F1" height="45.0679" id="player" rx="2.5" ry="2.5" style="stroke:#181818;stroke-width:0.5;" width="48" x="1263" y="1069.072"/><text fill="#000000" font-family="sans-serif" font-size="14" lengthAdjust="spacing" textLength="42" x="1266" y="1089.0379">player</text><line style="stroke:#181818;stroke-width:0.5;" x1="1264" x2="1310" y1="1098.1399" y2="1098.1399"/><line style="stroke:#181818;stroke-width:0.5;" x1="1264" x2="1310" y1="1106.1399" y2="1106.1399"/></g><!--class bot--><g id="elem_bot"><rect codeLine="103" fill="#F1F1F1" height="45.0679" id="bot" rx="2.5" ry="2.5" style="stroke:#181818;stroke-width:0.5;" width="28" x="1273" y="989.072"/><text fill="#000000" font-family="sans-serif" font-size="14" lengthAdjust="spacing" textLength="22" x="1276" y="1009.0379">bot</text><line style="stroke:#181818;stroke-width:0.5;" x1="1274" x2="1300" y1="1018.1399" y2="1018.1399"/><line style="stroke:#181818;stroke-width:0.5;" x1="1274" x2="1300" y1="1026.1399" y2="1026.1399"/></g><!--class Viewport--><g id="elem_Viewport"><rect codeLine="108" fill="#F1F1F1" height="197.6113" id="Viewport" rx="2.5" ry="2.5" style="stroke:#181818;stroke-width:0.5;" width="247" x="324" y="351.102"/><text fill="#000000" font-family="sans-serif" font-size="14" lengthAdjust="spacing" textLength="59" x="418" y="371.0679">Viewport</text><line style="stroke:#181818;stroke-width:0.5;" x1="325" x2="570" y1="380.1699" y2="380.1699"/><text fill="#000000" font-family="sans-serif" font-size="14" lengthAdjust="spacing" textLength="205" x="330" y="399.1358">objects: shared_ptr&lt;renderer&gt;</text><text fill="#000000" font-family="sans-serif" font-size="14" lengthAdjust="spacing" textLength="103" x="330" y="418.2038">keys: QSet&lt;int&gt;</text><text fill="#000000" font-family="sans-serif" font-size="14" lengthAdjust="spacing" textLength="110" x="330" y="437.2717">timer: QTimer *;</text><line style="stroke:#181818;stroke-width:0.5;" x1="325" x2="570" y1="445.3736" y2="445.3736"/><text fill="#000000" font-family="sans-serif" font-size="14" lengthAdjust="spacing" textLength="95" x="330" y="464.3396">void animate()</text><text fill="#000000" font-family="sans-serif" font-size="14" lengthAdjust="spacing" textLength="219" x="330" y="483.4075">void keyPressEvent(QKeyEvent *)</text><text fill="#000000" font-family="sans-serif" font-size="14" lengthAdjust="spacing" textLength="235" x="330" y="502.4754">void keyReleaseEvent(QKeyEvent *)</text><text fill="#000000" font-family="sans-serif" font-size="14" lengthAdjust="spacing" textLength="174" x="330" y="521.5433">void initializeGL() override</text><text fill="#000000" font-family="sans-serif" font-size="14" lengthAdjust="spacing" textLength="152" x="330" y="540.6113">void paintGL() override</text></g><!--class interface--><g id="elem_interface"><rect codeLine="119" fill="#F1F1F1" height="140.4075" id="interface" rx="2.5" ry="2.5" style="stroke:#181818;stroke-width:0.5;" width="199" x="348" y="167.602"/><text fill="#000000" font-family="sans-serif" font-size="14" lengthAdjust="spacing" textLength="60" x="417.5" y="187.5679">interface</text><line style="stroke:#181818;stroke-width:0.5;" x1="349" x2="546" y1="196.6699" y2="196.6699"/><text fill="#000000" font-family="sans-serif" font-size="14" lengthAdjust="spacing" textLength="170" x="354" y="215.6358">openGL_widget: Viewport</text><text fill="#000000" font-family="sans-serif" font-size="14" lengthAdjust="spacing" textLength="146" x="354" y="234.7038">timer_table: QTimer *</text><text fill="#000000" font-family="sans-serif" font-size="14" lengthAdjust="spacing" textLength="82" x="354" y="253.7717">selected: int</text><text fill="#000000" font-family="sans-serif" font-size="14" lengthAdjust="spacing" textLength="133" x="354" y="272.8396">serializer: Serializer</text><text fill="#000000" font-family="sans-serif" font-size="14" lengthAdjust="spacing" textLength="187" x="354" y="291.9075">rndr: shared_ptr&lt;renderer&gt;</text><line style="stroke:#181818;stroke-width:0.5;" x1="349" x2="546" y1="300.0095" y2="300.0095"/></g><!--class Serializer--><g id="elem_Serializer"><rect codeLine="127" fill="#F1F1F1" height="83.2038" id="Serializer" rx="2.5" ry="2.5" style="stroke:#181818;stroke-width:0.5;" width="255" x="320" y="45.002"/><text fill="#000000" font-family="sans-serif" font-size="14" lengthAdjust="spacing" textLength="63" x="416" y="64.9679">Serializer</text><line style="stroke:#181818;stroke-width:0.5;" x1="321" x2="574" y1="74.0699" y2="74.0699"/><text fill="#000000" font-family="sans-serif" font-size="14" lengthAdjust="spacing" textLength="136" x="326" y="93.0358">file: filesystem::path</text><text fill="#000000" font-family="sans-serif" font-size="14" lengthAdjust="spacing" textLength="243" x="326" y="112.1038">renderer_ptr: shared_ptr&lt;renderer&gt;</text><line style="stroke:#181818;stroke-width:0.5;" x1="321" x2="574" y1="120.2057" y2="120.2057"/></g><!--class QOpenGLWidget--><g id="elem_QOpenGLWidget"><rect codeLine="4" fill="#F1F1F1" height="45.0679" id="QOpenGLWidget" rx="2.5" ry="2.5" style="stroke:#181818;stroke-width:0.5;" width="119" x="76.5" y="427.072"/><text fill="#000000" font-family="sans-serif" font-size="14" lengthAdjust="spacing" textLength="113" x="79.5" y="447.0379">QOpenGLWidget</text><line style="stroke:#181818;stroke-width:0.5;" x1="77.5" x2="194.5" y1="456.1399" y2="456.1399"/><line style="stroke:#181818;stroke-width:0.5;" x1="77.5" x2="194.5" y1="464.1399" y2="464.1399"/></g><!--class QOpenGLFunctions--><g id="elem_QOpenGLFunctions"><rect codeLine="5" fill="#F1F1F1" height="45.0679" id="QOpenGLFunctions" rx="2.5" ry="2.5" style="stroke:#181818;stroke-width:0.5;" width="136" x="68" y="709.072"/><text fill="#000000" font-family="sans-serif" font-size="14" lengthAdjust="spacing" textLength="130" x="71" y="729.0379">QOpenGLFunctions</text><line style="stroke:#181818;stroke-width:0.5;" x1="69" x2="203" y1="738.1399" y2="738.1399"/><line style="stroke:#181818;stroke-width:0.5;" x1="69" x2="203" y1="746.1399" y2="746.1399"/></g><!--class std::pair--><g id="elem_std::pair"><rect fill="#F1F1F1" height="45.0679" id="std::pair" rx="2.5" ry="2.5" style="stroke:#181818;stroke-width:0.5;" width="62" x="105" y="1113.072"/><text fill="#000000" font-family="sans-serif" font-size="14" lengthAdjust="spacing" textLength="56" x="108" y="1133.0379">std::pair</text><line style="stroke:#181818;stroke-width:0.5;" x1="106" x2="166" y1="1142.1399" y2="1142.1399"/><line style="stroke:#181818;stroke-width:0.5;" x1="106" x2="166" y1="1150.1399" y2="1150.1399"/></g><!--class QMainWindow--><g id="elem_QMainWindow"><rect fill="#F1F1F1" height="45.0679" id="QMainWindow" rx="2.5" ry="2.5" style="stroke:#181818;stroke-width:0.5;" width="105" x="83.5" y="215.072"/><text fill="#000000" font-family="sans-serif" font-size="14" lengthAdjust="spacing" textLength="99" x="86.5" y="235.0379">QMainWindow</text><line style="stroke:#181818;stroke-width:0.5;" x1="84.5" x2="187.5" y1="244.1399" y2="244.1399"/><line style="stroke:#181818;stroke-width:0.5;" x1="84.5" x2="187.5" y1="252.1399" y2="252.1399"/></g><!--reverse link TPoint to Point2D--><g id="link_TPoint_Point2D"><path d="M256.1612,1400.543 C300.5912,1406.853 333.89,1411.592 374.35,1417.342 " fill="none" id="TPoint-backto-Point2D" style="stroke:#181818;stroke-width:1.0;"/><polygon fill="none" points="238.34,1398.012,255.3175,1406.4834,257.0048,1394.6026,238.34,1398.012" style="stroke:#181818;stroke-width:1.0;"/></g><!--reverse link TPoint to TVector--><g id="link_TPoint_TVector"><path d="M256.1276,1365.1251 C289.0976,1360.0151 307.96,1357.092 341.21,1351.932 " fill="none" id="TPoint-backto-TVector" style="stroke:#181818;stroke-width:1.0;"/><polygon fill="none" points="238.34,1367.882,257.0466,1371.0543,255.2087,1359.1959,238.34,1367.882" style="stroke:#181818;stroke-width:1.0;"/></g><!--reverse link std::pair to TVector--><g id="link_std::pair_TVector"><path d="M183.644,1154.5004 C206.324,1164.5604 220.29,1173.802 240,1196.602 C269.85,1231.132 244.66,1261.542 279,1291.602 C296.53,1306.952 318.8,1317.042 341.33,1323.642 " fill="none" id="std::pair-backto-TVector" style="stroke:#181818;stroke-width:1.0;"/><polygon fill="none" points="167.19,1147.202,181.2112,1159.985,186.0768,1149.0157,167.19,1147.202" style="stroke:#181818;stroke-width:1.0;"/></g><!--reverse link TVector to Vect2D--><g id="link_TVector_Vect2D"><path d="M571.9433,1345.42 C679.6233,1353.99 825.79,1365.622 918.6,1373.002 " fill="none" id="TVector-backto-Vect2D" style="stroke:#181818;stroke-width:1.0;"/><polygon fill="none" points="554,1343.992,571.4672,1351.4011,572.4193,1339.439,554,1343.992" style="stroke:#181818;stroke-width:1.0;"/></g><!--reverse link TCircle to Circle2D--><g id="link_TCircle_Circle2D"><path d="M258.4715,1252.1067 C301.7015,1250.1467 332.97,1248.742 372.47,1246.952 " fill="none" id="TCircle-backto-Circle2D" style="stroke:#181818;stroke-width:1.0;"/><polygon fill="none" points="240.49,1252.922,258.7433,1258.1006,258.1998,1246.1129,240.49,1252.922" style="stroke:#181818;stroke-width:1.0;"/></g><!--reverse link TVector to TLine--><g id="link_TVector_TLine"><path d="M571.8939,1322.1301 C669.4339,1311.4901 795.38,1297.732 890.6,1287.342 " fill="none" id="TVector-backto-TLine" style="stroke:#181818;stroke-width:1.0;"/><polygon fill="none" points="554,1324.082,572.5445,1328.0947,571.2432,1316.1654,554,1324.082" style="stroke:#181818;stroke-width:1.0;"/></g><!--reverse link TLine to Line2D--><g id="link_TLine_Line2D"><path d="M1107.23,1276.602 C1148.63,1276.602 1177.88,1276.602 1215.7,1276.602 " fill="none" id="TLine-backto-Line2D" style="stroke:#181818;stroke-width:1.0;"/><polygon fill="none" points="1089.23,1276.602,1107.23,1282.602,1107.23,1270.602,1089.23,1276.602" style="stroke:#181818;stroke-width:1.0;"/></g><!--reverse link QOpenGLFunctions to renderable--><g id="link_QOpenGLFunctions_renderable"><path d="M187.2738,764.4197 C223.6338,788.1497 267.44,816.732 321.34,851.912 " fill="none" id="QOpenGLFunctions-backto-renderable" style="stroke:#181818;stroke-width:1.0;"/><polygon fill="none" points="172.2,754.582,183.9945,769.4443,190.553,759.3951,172.2,754.582" style="stroke:#181818;stroke-width:1.0;"/></g><!--reverse link renderable to vehicle--><g id="link_renderable_vehicle"><path d="M591.3534,968.2225 C679.9234,989.6925 780.47,1014.062 868.04,1035.282 " fill="none" id="renderable-backto-vehicle" style="stroke:#181818;stroke-width:1.0;"/><polygon fill="none" points="573.86,963.982,589.9399,974.0536,592.7669,962.3914,573.86,963.982" style="stroke:#181818;stroke-width:1.0;"/></g><!--reverse link Circle2D to vehicle--><g id="link_Circle2D_vehicle"><path d="M539.8874,1213.3333 C628.9374,1183.8433 762.28,1139.682 868.13,1104.632 " fill="none" id="Circle2D-backto-vehicle" style="stroke:#181818;stroke-width:1.0;"/><polygon fill="none" points="522.8,1218.992,541.7736,1219.0291,538.0012,1207.6375,522.8,1218.992" style="stroke:#181818;stroke-width:1.0;"/></g><!--reverse link renderable to obstacle--><g id="link_renderable_obstacle"><path d="M589.903,861.6597 C664.513,823.6997 744,783.252 824.61,742.242 " fill="none" id="renderable-backto-obstacle" style="stroke:#181818;stroke-width:1.0;"/><polygon fill="none" points="573.86,869.822,592.6237,867.0073,587.1822,856.312,573.86,869.822" style="stroke:#181818;stroke-width:1.0;"/></g><!--reverse link vehicle to player--><g id="link_vehicle_player"><path d="M1129.765,1077.304 C1186.095,1082.464 1229.86,1086.462 1262.57,1089.462 " fill="none" id="vehicle-backto-player" style="stroke:#181818;stroke-width:1.0;"/><polygon fill="none" points="1111.84,1075.662,1129.2176,1083.2789,1130.3123,1071.329,1111.84,1075.662" style="stroke:#181818;stroke-width:1.0;"/></g><!--reverse link vehicle to bot--><g id="link_vehicle_bot"><path d="M1129.5565,1039.7099 C1192.2465,1028.4499 1243.87,1019.172 1272.5,1014.032 " fill="none" id="vehicle-backto-bot" style="stroke:#181818;stroke-width:1.0;"/><polygon fill="none" points="1111.84,1042.892,1130.6172,1045.6153,1128.4958,1033.8044,1111.84,1042.892" style="stroke:#181818;stroke-width:1.0;"/></g><!--reverse link QOpenGLWidget to Viewport--><g id="link_QOpenGLWidget_Viewport"><path d="M213.94,449.602 C248.06,449.602 274.41,449.602 316.3,449.602 " fill="none" id="QOpenGLWidget-backto-Viewport" style="stroke:#181818;stroke-width:1.0;"/><polygon fill="none" points="195.94,449.602,213.94,455.602,213.94,443.602,195.94,449.602" style="stroke:#181818;stroke-width:1.0;"/></g><!--reverse link QOpenGLFunctions to Viewport--><g id="link_QOpenGLFunctions_Viewport"><path d="M175.375,696.6386 C212.645,662.6786 271.69,608.882 334.09,552.032 " fill="none" id="QOpenGLFunctions-backto-Viewport" style="stroke:#181818;stroke-width:1.0;"/><polygon fill="none" points="162.07,708.762,179.4161,701.0736,171.3339,692.2036,162.07,708.762" style="stroke:#181818;stroke-width:1.0;"/></g><!--reverse link QMainWindow to interface--><g id="link_QMainWindow_interface"><path d="M206.8,237.602 C248.02,237.602 289.06,237.602 340.24,237.602 " fill="none" id="QMainWindow-backto-interface" style="stroke:#181818;stroke-width:1.0;"/><polygon fill="none" points="188.8,237.602,206.8,243.602,206.8,231.602,188.8,237.602" style="stroke:#181818;stroke-width:1.0;"/></g><!--link interface to Viewport--><g id="link_interface_Viewport"><path codeLine="132" d="M548.5,209.602 C602.65,209.602 564.78,277.1721 519.59,342.3121 " fill="none" id="interface-to-Viewport" style="stroke:#181818;stroke-width:1.0;"/><polygon fill="#181818" points="516.17,347.242,524.5866,342.1272,519.02,343.1338,518.0135,337.5672,516.17,347.242" style="stroke:#181818;stroke-width:1.0;"/></g><!--link interface to Serializer--><g id="link_interface_Serializer"><path codeLine="133" d="M548.5,267.602 C594.72,267.602 568.24,204.912 547.5,163.602 C540.75,150.152 534.9177,142.3458 523.3677,132.4058 " fill="none" id="interface-to-Serializer" style="stroke:#181818;stroke-width:1.0;"/><polygon fill="#181818" points="518.82,128.492,523.0324,137.3945,522.6098,131.7535,528.2508,131.3309,518.82,128.492" style="stroke:#181818;stroke-width:1.0;"/></g><!--link Viewport to renderer--><g id="link_Viewport_renderer"><path codeLine="134" d="M572.5,393.602 C590.72,393.602 568.38,519.732 554.5,552.102 C541.13,583.292 519.7439,606.3478 496.5439,626.7678 " fill="none" id="Viewport-to-renderer" style="stroke:#181818;stroke-width:1.0;"/><polygon fill="#181818" points="492.04,630.732,501.4386,627.7883,495.7932,627.4285,496.153,621.7831,492.04,630.732" style="stroke:#181818;stroke-width:1.0;"/></g><!--link ai to renderable--><g id="link_ai_renderable"><path codeLine="137" d="M867,933.602 C768.55,933.602 663.07,933.602 579.94,933.602 " fill="none" id="ai-to-renderable" style="stroke:#181818;stroke-width:1.0;stroke-dasharray:7.0,7.0;"/><polygon fill="#181818" points="573.94,933.602,582.94,937.602,578.94,933.602,582.94,929.602,573.94,933.602" style="stroke:#181818;stroke-width:1.0;"/><text fill="#000000" font-family="sans-serif" font-size="13" lengthAdjust="spacing" textLength="167" x="625" y="929.499">points to a derived class bot</text></g><!--SRC=[lLTBR-Cs4BxxLyofQnkkq0P53rf7GD573atHJMFiNWeOj3IssKYaGD9EL3V_lKEzI5cIO-mMzS5Mo8_p-3ZpZQAVkCYPOXaycY95q4Rns1ooT9BYre2HeFXkRo3X2cF3fPYy0nqpGi8UxSuaJfdMyF1xZkBk_XDFTdYszij1b2VrP9Ap-8djoCkUvQZXD9a0VIhqweFamYpdyzLy3aUM7X1CaUFYJp6V9ppJj2eEsGOLo2s5aw7GrcX4Lg3-n5AgH8V0b6B5ShMmC1srsvM7wOhsTmluGUrq40IpSllLZwI4tVoqNDrkKybCPURs9W9OBcr82MwZ2F35e4YQk4yT2wkFH9PKdv5Cr-e20csICCmPLpLP7J_MpVM1La6THVeZLt6ANqIxOWa_4EqhTn6bqNMCmg0AwsJwuLU-hq-WmfybSCy5VWdH5IjUEf8gdelngAt3wsEsw6x4ZxYZC8pdSIjLTaXPs182_zHUF8x53flAhXtVH7Lmhwwp57b5nJRKe2VFPxMCdJGtVr7cT6t7gbQf9nKcwzoefJCIkUx9k4W6qOn7JI3scsr8GrXiEfxBW1fEWdDX-4-eQFTFJGIlS9GyWKmUSLhZof_PA3HFMNmjLad3J0qUHDKo0bKNJ6VZ4MeqQqFi71HEx-uFT6pGOBK5Emzz8RoITzzh9HPKhjemGMbwD_FLR1HLP-40vO8c2BTfwMegZ1WRO2Edig49ypR9NW7KDLStJjGKoN3sTeA97KMtbTDPlq6ODQKxpS6uLu39IrW5vLQAynL1xA_ZVLM7yLv98SFGaBYiyrOoobOmXiLxJ48ORgw-jXnnpsElLHmuS8-BUdu6BKKk_5ocnJgM1s52iDNoxVSzcUxcKbTIM5VN_v2ZfAjYRoRfvRIXTDnOhmjf0Tz5dfPL9jk9KuDSyNUg0aWHbE89lc_tEpqpjk_90xp0BNnJroyKzeznivvI0Bi8TLf5XUXxI4PT33OMdNOdXqvTqrqNd3MQDfP7Nz609qFe8KqxWtMAXwwWe37Mb4xJBwS-SYFDACpJWuD6jIwbR4kNsz65ZnoVSwbCRt1LRxcBYuEi7Q-zja3b2lS92u8yFA9PKWnktJOQbV73olx2_FsaIoyJFBCbDUikaxKF2hN- -KZNCttu5Olo2UPzt1-O8jFu5f8BRZXB-TzuT-zTp5bRC8gzl__gKUa8Tbp-HiS-qKk5VFPOA_bSFvS4X-qDT7bP6oiGZXtNv9HKRAmM-Gf55robG8G-jizE5aMYBjpIsQjRSzn_PU4s6Fkj2sqmiw_hPk_ir-QixRVzj4I5OOSB-3hgik41NO8MTPPYSuZiLHLfCJt59J05KCt6WF4mR6GTWY0Q4UWGoacWxJ-936YL7mdlckzV]--></g></svg>